<?xml version="1.0" encoding="UTF-8"?>
<svg width="700pt" height="700pt" version="1.1" viewBox="0 0 700 700" xmlns="http://www.w3.org/2000/svg">
 <path d="m350 541.33c144.33 0 261.33-117 261.33-261.33 0-144.33-117-261.33-261.33-261.33-144.33 0-261.33 117-261.33 261.33 0 144.33 117 261.33 261.33 261.33zm-168-436.04c26.207-25.199 57.961-44.613 93.332-56.094v461.59c-35.375-11.48-67.125-30.875-93.332-56.094zm336 349.41c-26.207 25.199-57.961 44.613-93.332 56.094v-461.59c35.375 11.48 67.125 30.875 93.332 56.094zm18.668-19.863v-309.68c34.945 42.055 56 96.02 56 154.84s-21.059 112.79-56 154.84zm-130.67-390.73v471.76c-18.012 4.2734-36.699 6.7773-56 6.7773s-37.988-2.5-56-6.7773v-471.76c18.012-4.2734 36.699-6.7773 56-6.7773s37.988 2.5039 56 6.7773zm-242.67 81.051v309.68c-34.945-42.055-56-96.02-56-154.84s21.059-112.79 56-154.84z"/>
</svg>
